<svg xmlns="http://www.w3.org/2000/svg" width="160" height="30" viewBox="0 0 103.39 18.92">
    <g id="Layer_2">
        <g id="Layer_1-2">
            <circle cx="13.14" cy="10.12" r="2.02" style="fill:#ddf5ff" />
            <path
                d="M13.82,15.18a2.13,2.13,0,0,0-2.75,1.24v0a.38.38,0,0,1-.48.24h0a6.81,6.81,0,0,1-2-1.17.38.38,0,0,1,0-.53h0a2.13,2.13,0,0,0-1.48-3.56,6.65,6.65,0,0,1-4.33.14A7.82,7.82,0,0,0,4.1,13.85c3.88,4.57,5.76,5.41,11,2.74a.39.39,0,0,1-.05-.09A2.13,2.13,0,0,0,13.82,15.18Z"
                style="fill:#ddf5ff" />
            <path
                d="M22.68,3.46c-1.63-2-10.48-1.69-12-1.4A6.64,6.64,0,0,1,11.3,4a2.12,2.12,0,0,0,3.4.61,2.14,2.14,0,0,0,.52-.82.38.38,0,0,1,.48-.24h0a6.8,6.8,0,0,1,2,1.17.38.38,0,0,1,0,.53h0a2.13,2.13,0,0,0,1.95,3.54.38.38,0,0,1,.46.27v0a7,7,0,0,1,0,2.17.37.37,0,0,1-.44.3h0A2.13,2.13,0,0,0,17.6,15C21.33,11.94,24.26,5.32,22.68,3.46Z"
                style="fill:#ddf5ff" />
            <path
                d="M73.83,4.47V15H71.5V13.61A3.8,3.8,0,0,1,70,14.73a5.09,5.09,0,0,1-2,.37,5.57,5.57,0,0,1-2.74-.67,4.75,4.75,0,0,1-1.87-1.87,6.23,6.23,0,0,1,0-5.65A4.78,4.78,0,0,1,65.28,5,5.6,5.6,0,0,1,68,4.38a4.86,4.86,0,0,1,1.87.35,4.13,4.13,0,0,1,1.49,1V5.25a.75.75,0,0,1,.75-.75h0Zm-3.3,7.63a3.64,3.64,0,0,0,0-4.76,3.21,3.21,0,0,0-4.47,0,3.67,3.67,0,0,0,0,4.76,3,3,0,0,0,2.23.91,3,3,0,0,0,2.24-.9Z"
                style="fill:#ddf5ff" />
            <path
                d="M83,14.4a2.9,2.9,0,0,1-1.06.53,4.75,4.75,0,0,1-1.31.18,3.71,3.71,0,0,1-2.68-.91A3.48,3.48,0,0,1,77,11.56V2.15H78.7a.75.75,0,0,1,.75.75h0V4.54h2.8v2h-2.8v5a1.63,1.63,0,0,0,.38,1.17,1.4,1.4,0,0,0,1.07.4,2.74,2.74,0,0,0,.47,0,1.19,1.19,0,0,1,1.35.71Z"
                style="fill:#ddf5ff" />
            <path
                d="M86.48,14.41a5,5,0,0,1-2-1.91,5.74,5.74,0,0,1,0-5.55,5,5,0,0,1,2-1.91,6.37,6.37,0,0,1,5.76,0,5,5,0,0,1,2,1.91,5.74,5.74,0,0,1,0,5.55,5,5,0,0,1-2,1.91A6.37,6.37,0,0,1,86.48,14.41Zm5.11-2.34a3.64,3.64,0,0,0,0-4.76,3.21,3.21,0,0,0-4.47,0,3.67,3.67,0,0,0,0,4.76,3,3,0,0,0,2.23.91,3,3,0,0,0,2.24-.89Z"
                style="fill:#ddf5ff" />
            <path
                d="M103.39,4.35V6.68a3.13,3.13,0,0,0-.57-.06,3,3,0,0,0-2.23.83,3.33,3.33,0,0,0-.81,2.41V15H97.32V4.47h1.59a.75.75,0,0,1,.75.75h0V6A4.08,4.08,0,0,1,103.39,4.35Z"
                style="fill:#ddf5ff" />
            <path
                d="M9.12,6.47,8.34,6A.71.71,0,0,1,8,5.38V5a.71.71,0,0,1,.35-.62l.78-.47a.71.71,0,0,0,.26-1h0L9,2.27A.71.71,0,0,0,8,2H8l-.79.47a.71.71,0,0,1-.71,0l-.36-.21a.71.71,0,0,1-.35-.62V.71A.71.71,0,0,0,5.1,0H4.36a.71.71,0,0,0-.71.71v1a.71.71,0,0,1-.35.62l-.36.21a.71.71,0,0,1-.71,0L1.44,2a.71.71,0,0,0-1,.26h0L.1,2.92a.71.71,0,0,0,.26,1h0l.78.47A.71.71,0,0,1,1.48,5V5.4A.71.71,0,0,1,1.13,6l-.78.47a.71.71,0,0,0-.26,1h0l.37.64a.71.71,0,0,0,1,.26h0l.78-.47a.71.71,0,0,1,.71,0l.36.21a.71.71,0,0,1,.35.62v.81a.71.71,0,0,0,.71.71H5.1a.71.71,0,0,0,.71-.71h0V8.71a.71.71,0,0,1,.35-.62l.36-.21a.71.71,0,0,1,.71,0L8,8.36A.71.71,0,0,0,9,8.1H9l.37-.64a.71.71,0,0,0-.24-1Zm-4.39.2A1.51,1.51,0,1,1,6.23,5.16h0A1.51,1.51,0,0,1,4.72,6.66h0Z"
                style="fill:#3cfffc" />
            <path
                d="M29.27,14.77a6.28,6.28,0,0,1-1.95-.85l.43-.85a1.11,1.11,0,0,1,1.4-.53,7.19,7.19,0,0,0,.79.28,7.06,7.06,0,0,0,2,.28q2.2,0,2.2-1.16a.78.78,0,0,0-.56-.77,9.7,9.7,0,0,0-1.8-.41,14.53,14.53,0,0,1-2.12-.47,3.24,3.24,0,0,1-1.4-.9,2.5,2.5,0,0,1-.6-1.78,2.8,2.8,0,0,1,1.25-2.39,5.68,5.68,0,0,1,3.37-.9,9.74,9.74,0,0,1,2.16.25,6.07,6.07,0,0,1,1.78.68l-.47.9a1.11,1.11,0,0,1-1.37.55,6.07,6.07,0,0,0-2.13-.37,3.33,3.33,0,0,0-1.64.33,1,1,0,0,0-.56.85.85.85,0,0,0,.6.84,9.45,9.45,0,0,0,1.87.47,14.36,14.36,0,0,1,2.06.47,3.23,3.23,0,0,1,1.4.86,2.41,2.41,0,0,1,.58,1.73,2.74,2.74,0,0,1-1.28,2.36,6,6,0,0,1-3.48.89A9.41,9.41,0,0,1,29.27,14.77Z"
                style="fill:#3cfffc" />
            <path
                d="M60.35,4.47v8.91q0,5.54-5.66,5.54a10.52,10.52,0,0,1-2.87-.38,6.1,6.1,0,0,1-2.24-1.11l.71-1.19a.73.73,0,0,1,1-.24h0a6,6,0,0,0,1.13.5,6.84,6.84,0,0,0,2.13.35,3.53,3.53,0,0,0,2.54-.78,3.22,3.22,0,0,0,.81-2.4V13.1a4,4,0,0,1-1.53,1,5.41,5.41,0,0,1-2,.35,5.69,5.69,0,0,1-2.7-.64,4.8,4.8,0,0,1-1.91-1.8,5,5,0,0,1-.7-2.65,5,5,0,0,1,.7-2.64A4.75,4.75,0,0,1,51.67,5a5.77,5.77,0,0,1,2.7-.63,5.54,5.54,0,0,1,2.07.37A3.82,3.82,0,0,1,58,5.87V5.22a.75.75,0,0,1,.75-.75h1.58ZM57,11.57a2.83,2.83,0,0,0,.9-2.17A2.8,2.8,0,0,0,57,7.26a3.62,3.62,0,0,0-4.6,0,2.8,2.8,0,0,0-.89,2.14,2.83,2.83,0,0,0,.89,2.17A3.59,3.59,0,0,0,57,11.57Z"
                style="fill:#3cfffc" />
            <path d="M47.14,4.47A1.23,1.23,0,0,0,46,5.21l-.2.47L41.8,15h1.32a1.63,1.63,0,0,0,1.49-1l4.08-9.52Z"
                style="fill:#3cfffc" />
            <path d="M42.43,10.8,40,5.22a1.23,1.23,0,0,0-1.14-.76H37.13l4.08,9.17Z" style="fill:#3cfffc" />
        </g>
    </g>
</svg>